# xmcd
#
# Track frame offsets: 
#        150
#        17919
#        42915
#        66405
#        93362
#        110662
#        136609
#        159413
#        182625
#        209088
#        230819
#        249531
#        280815
#        305720
#
# Disc length: 4416 seconds
#
# Revision: 0
# Processed by: cddbd v1.5.2PL0 Copyright (c) Steve Scherf et al.
# Submitted via: ExactAudioCopy v1.0b4
#
DISCID=cd113e0e
DTITLE=Texas Blues Runners - Sweet Mama
DYEAR=2014
DGENRE=Blues
TTITLE0=Tore Up From the Floor Up
TTITLE1=Look Before You Leap
TTITLE2=Sweet Mama
TTITLE3=Feels Like Love Again
TTITLE4=When You Have A Heart
TTITLE5=Who's Your Daddy
TTITLE6=Power Of Love
TTITLE7=Bring It Back
TTITLE8=Hell To Pay
TTITLE9=No Better Love
TTITLE10=I Don't Think She Knows
TTITLE11=Into The Fire
TTITLE12=Downtown
TTITLE13=Slippin' Away
EXTD=
EXTT0=
EXTT1=
EXTT2=
EXTT3=
EXTT4=
EXTT5=
EXTT6=
EXTT7=
EXTT8=
EXTT9=
EXTT10=
EXTT11=
EXTT12=
EXTT13=
PLAYORDER=
